<svg width="54" height="54" viewBox="0 0 54 54" fill="none" xmlns="http://www.w3.org/2000/svg">
<path d="M47.25 10.125H6.75C6.30245 10.125 5.87322 10.3028 5.55676 10.6193C5.24029 10.9357 5.0625 11.3649 5.0625 11.8125V40.5C5.0625 41.3951 5.41808 42.2535 6.05101 42.8865C6.68395 43.5194 7.54239 43.875 8.4375 43.875H45.5625C46.4576 43.875 47.316 43.5194 47.949 42.8865C48.5819 42.2535 48.9375 41.3951 48.9375 40.5V11.8125C48.9375 11.3649 48.7597 10.9357 48.4432 10.6193C48.1268 10.3028 47.6976 10.125 47.25 10.125ZM8.4375 23.625H16.875V30.375H8.4375V23.625ZM20.25 23.625H45.5625V30.375H20.25V23.625ZM45.5625 13.5V20.25H8.4375V13.5H45.5625ZM8.4375 33.75H16.875V40.5H8.4375V33.75ZM45.5625 40.5H20.25V33.75H45.5625V40.5Z" fill="#222D74"/>
</svg>
