<svg width="122" height="120" viewBox="0 0 122 120" fill="none" xmlns="http://www.w3.org/2000/svg">
<path d="M61 0.6875C48.9477 0.6875 37.1661 4.16612 27.145 10.6835C17.1238 17.2008 9.31333 26.4641 4.70112 37.3021C0.0889033 48.14 -1.11786 60.0658 1.23342 71.5713C3.58471 83.0768 9.38844 93.6453 17.9107 101.94C26.433 110.235 37.291 115.884 49.1117 118.173C60.9324 120.461 73.1849 119.287 84.3198 114.798C95.4547 110.308 104.972 102.706 111.668 92.9523C118.364 83.1984 121.938 71.7309 121.938 60C121.92 44.2744 115.495 29.1977 104.071 18.0781C92.6462 6.95842 77.1564 0.704106 61 0.6875ZM61 110.188C50.8019 110.188 40.8328 107.244 32.3534 101.729C23.874 96.2147 17.2651 88.3765 13.3625 79.2059C9.45984 70.0354 8.43874 59.9443 10.4283 50.2089C12.4178 40.4735 17.3287 31.5309 24.5398 24.5121C31.751 17.4932 40.9385 12.7133 50.9407 10.7768C60.9428 8.84034 71.3103 9.83422 80.7321 13.6328C90.154 17.4314 98.2069 23.864 103.873 32.1173C109.538 40.3706 112.563 50.0738 112.563 60C112.547 73.3059 107.11 86.0625 97.4431 95.4713C87.7766 104.88 74.6705 110.172 61 110.188ZM56.3125 64.5625V32.625C56.3125 31.4149 56.8064 30.2545 57.6855 29.3988C58.5645 28.5432 59.7568 28.0625 61 28.0625C62.2432 28.0625 63.4355 28.5432 64.3146 29.3988C65.1937 30.2545 65.6875 31.4149 65.6875 32.625V64.5625C65.6875 65.7726 65.1937 66.933 64.3146 67.7887C63.4355 68.6443 62.2432 69.125 61 69.125C59.7568 69.125 58.5645 68.6443 57.6855 67.7887C56.8064 66.933 56.3125 65.7726 56.3125 64.5625ZM68.0313 85.0938C68.0313 86.4473 67.6189 87.7705 66.8463 88.8959C66.0737 90.0214 64.9756 90.8986 63.6908 91.4165C62.406 91.9345 60.9922 92.0701 59.6283 91.806C58.2644 91.5419 57.0115 90.8901 56.0282 89.933C55.0448 88.9759 54.3752 87.7565 54.1039 86.4289C53.8326 85.1013 53.9718 83.7253 54.504 82.4748C55.0362 81.2242 55.9374 80.1554 57.0937 79.4034C58.25 78.6514 59.6094 78.25 61 78.25C62.8648 78.25 64.6533 78.971 65.9719 80.2545C67.2905 81.5379 68.0313 83.2787 68.0313 85.0938Z" fill="#2EB135"/>
</svg>
