<svg width="16" height="15" viewBox="0 0 16 15" fill="none" xmlns="http://www.w3.org/2000/svg">
<path d="M15.6498 12.2251L9.50095 1.5467C9.3473 1.28509 9.12794 1.06817 8.86463 0.91745C8.60131 0.766729 8.30318 0.687439 7.99978 0.687439C7.69638 0.687439 7.39824 0.766729 7.13493 0.91745C6.87161 1.06817 6.65226 1.28509 6.49861 1.5467L0.349778 12.2251C0.201936 12.4781 0.124023 12.7659 0.124023 13.059C0.124023 13.352 0.201936 13.6398 0.349778 13.8929C0.501463 14.1561 0.720444 14.3742 0.98425 14.5248C1.24806 14.6754 1.54719 14.7531 1.85095 14.75H14.1486C14.4521 14.7529 14.751 14.675 15.0145 14.5244C15.278 14.3738 15.4968 14.1559 15.6484 13.8929C15.7964 13.64 15.8746 13.3522 15.8748 13.0592C15.8751 12.7661 15.7974 12.4782 15.6498 12.2251ZM14.6745 13.3297C14.6209 13.4211 14.544 13.4967 14.4516 13.5485C14.3591 13.6004 14.2546 13.6268 14.1486 13.625H1.85095C1.74497 13.6268 1.64041 13.6004 1.54799 13.5485C1.45557 13.4967 1.37862 13.4211 1.32501 13.3297C1.27646 13.2475 1.25084 13.1537 1.25084 13.0583C1.25084 12.9628 1.27646 12.8691 1.32501 12.7869L7.47384 2.1085C7.52853 2.0175 7.60583 1.94219 7.69824 1.88991C7.79065 1.83764 7.89501 1.81016 8.00118 1.81016C8.10736 1.81016 8.21172 1.83764 8.30413 1.88991C8.39653 1.94219 8.47384 2.0175 8.52853 2.1085L14.6774 12.7869C14.7255 12.8693 14.7506 12.9632 14.7501 13.0587C14.7496 13.1541 14.7235 13.2477 14.6745 13.3297ZM7.43728 9.12498V6.31249C7.43728 6.1633 7.49654 6.02023 7.60203 5.91474C7.70752 5.80925 7.85059 5.74999 7.99978 5.74999C8.14896 5.74999 8.29204 5.80925 8.39753 5.91474C8.50301 6.02023 8.56228 6.1633 8.56228 6.31249V9.12498C8.56228 9.27417 8.50301 9.41724 8.39753 9.52273C8.29204 9.62822 8.14896 9.68748 7.99978 9.68748C7.85059 9.68748 7.70752 9.62822 7.60203 9.52273C7.49654 9.41724 7.43728 9.27417 7.43728 9.12498ZM8.84353 11.6562C8.84353 11.8231 8.79404 11.9862 8.70133 12.125C8.60862 12.2638 8.47684 12.3719 8.32267 12.4358C8.16849 12.4996 7.99884 12.5163 7.83517 12.4838C7.6715 12.4512 7.52116 12.3709 7.40316 12.2529C7.28516 12.1349 7.2048 11.9845 7.17224 11.8208C7.13968 11.6572 7.15639 11.4875 7.22025 11.3333C7.28412 11.1792 7.39226 11.0474 7.53102 10.9547C7.66977 10.862 7.8329 10.8125 7.99978 10.8125C8.22355 10.8125 8.43816 10.9014 8.5964 11.0596C8.75463 11.2178 8.84353 11.4325 8.84353 11.6562Z" fill="#F30000"/>
</svg>
